<?xml version="1.0" encoding="utf-8"?>
<!-- Generator: Adobe Illustrator 19.0.1, SVG Export Plug-In . SVG Version: 6.00 Build 0)  -->
<svg version="1.1" xmlns="http://www.w3.org/2000/svg" xmlns:xlink="http://www.w3.org/1999/xlink" x="0px" y="0px"
	 viewBox="0 0 527.3 921" enable-background="new 0 0 527.3 921" xml:space="preserve">
<g id="Layer_2">
	<g>
		<path fill="none" stroke="#FFFFFF" stroke-width="22" stroke-miterlimit="10" d="M262.3,288c34.2,0,82.9,2,130.9,10.5
			c7.4,1.3,14.5-3.4,16.2-10.7l13.6-58c1.8-7.6-3-15.3-10.6-17C380.6,205.6,331,198,262.3,198c-68.6,0-118.1,7.6-149.9,14.8
			c-7.6,1.8-12.4,9.4-10.6,17l13.6,58c1.7,7.3,8.8,12,16.2,10.7C162.2,293.1,205.8,288,262.3,288z"/>
		<path fill="none" stroke="#FFFFFF" stroke-width="22" stroke-miterlimit="10" d="M387.2,382.9l11.6-49.4
			c1.9-8.2-3.4-16.3-11.7-17.7c-30.8-5.3-72.2-9.8-124.8-9.8c-52.5,0-93.8,4.4-124.5,9.8c-8.3,1.4-13.6,9.5-11.7,17.7l11.6,49.4
			c1.7,7.3,8.7,12.2,16.2,11.1c28.3-3.9,64.5-7,108.4-7c29,0,68.2,1.4,108.7,7C378.5,395,385.5,390.2,387.2,382.9z"/>
		<path fill="none" stroke="#FFFFFF" stroke-width="22" stroke-miterlimit="10" d="M110.6,194.7c30-6.7,80.6-14.7,151.7-14.7
			c39.2,0,97.4,2.6,151.8,14.7c0.1,0,0.1,0,0.2,0c8.9,2,17.8-3.5,19.9-12.4l22.5-96.1c2-8.4-2.8-16.9-11-19.6
			C420.4,58.2,360.9,43,262.3,43c-98.5,0-157.9,15.2-183.2,23.6C71,69.3,66.2,77.8,68.2,86.2l22.5,96.2c2.1,8.8,10.9,14.3,19.7,12.3
			C110.5,194.7,110.6,194.7,110.6,194.7z"/>
		<path fill="none" stroke="#FFFFFF" stroke-width="22" stroke-miterlimit="10" d="M262.3,405c-42.1,0-77.1,2.8-105.1,6.7
			c-6.6,0.9-11.1,7.4-9.5,13.9L152,444c1.2,5.2,5.8,8.8,11.1,8.8h198.7c5.3,0,9.9-3.6,11.1-8.8l4.3-18.4c1.5-6.5-2.9-13-9.5-13.9
			C339.6,407.9,304.6,405,262.3,405z"/>
	</g>
</g>
<g id="Layer_20" display="none">
	<rect x="24.4" y="9" display="inline" fill="#FFFFFF" width="478.5" height="936.2"/>
</g>
<g id="Chin">
	<g>
		<path fill="#FFFFFF" d="M452.5,512.9l11,6.3c6.8,2.7,10.6,9.5,9.1,16.3L461.9,618c-1.7,7.7-9.5,13.2-18,12.6l-27-2
			c-10.7-0.8-17.3-10.7-13.4-20.1l26.7-86.8C433.7,513.5,443.9,509.4,452.5,512.9z"/>
		<path fill="#558AD8" stroke="#FFFFFF" stroke-width="16" stroke-miterlimit="10" d="M453.9,509.6l11.5,6.3l-0.5-0.2l1.4,0.6
			c0.5,0.2,0.9,0.5,1.4,0.7c0.5,0.3,0.9,0.6,1.3,0.8c0.4,0.3,0.9,0.6,1.3,1c0.4,0.3,0.8,0.7,1.2,1.1c0.4,0.4,0.7,0.8,1.1,1.2
			c0.4,0.4,0.7,0.8,1,1.3c0.3,0.4,0.6,0.9,0.9,1.4c0.3,0.5,0.5,1,0.8,1.4c0.2,0.5,0.4,1,0.6,1.5c0.2,0.5,0.3,1.1,0.5,1.6
			c0.1,0.5,0.2,1.1,0.4,1.6l0.2,1.7c0,0.6,0,1.1,0,1.7l-0.1,1.7l-0.3,1.6l0.1-0.4l-4.4,41.3c-0.7,6.9-1.5,13.8-2.3,20.7l-1.2,10.3
			c-0.4,3.4-0.8,6.9-1.2,10.3l0,0.3l-0.1,0.2c-1,4.5-3.5,8.6-6.9,11.5c-3.4,2.9-7.5,4.8-11.8,5.4c-1.1,0.2-2.2,0.2-3.3,0.2
			c-1.1,0-2.3-0.1-3-0.2l-4.9-0.5l-9.9-0.9l-9.9-1l-1.2-0.1l-0.2,0l-0.3,0l0,0l-0.1,0l-0.3,0l-0.6-0.1l-0.6-0.1l-0.3-0.1l-0.4-0.1
			c-0.6-0.1-1.2-0.3-1.7-0.4c-0.6-0.1-1-0.4-1.6-0.5c-0.5-0.2-1-0.4-1.5-0.6c-1-0.5-1.9-1-2.8-1.6c-0.9-0.6-1.7-1.3-2.5-2
			c-0.7-0.8-1.5-1.6-2.1-2.5c-1.3-1.7-2.3-3.8-2.9-5.9c-0.7-2.1-0.8-4.4-0.7-6.5c0.1-2.2,0.8-4.3,1.6-6.2l-0.2,0.4l7.3-21.5
			l7.3-21.5c2.4-7.2,4.7-14.4,7-21.6c1.2-3.6,2.3-7.2,3.4-10.8c1.1-3.6,2.1-7.3,3.2-10.9l0-0.1l0.1-0.1l0.8-1.8l1-1.7l1.2-1.6
			c0.4-0.5,0.9-1,1.3-1.4c0.5-0.4,1-0.9,1.4-1.3c0.5-0.4,1-0.8,1.6-1.2c0.6-0.3,1.1-0.7,1.7-1c0.6-0.3,1.2-0.6,1.8-0.8
			c0.6-0.2,1.2-0.5,1.8-0.7c0.6-0.2,1.2-0.4,1.9-0.5c0.6-0.1,1.3-0.2,1.9-0.3c0.7-0.1,1.3-0.1,2-0.2c0.7,0,1.3,0,2,0
			c0.7,0.1,1.3,0.1,2,0.2c0.6,0.1,1.3,0.3,1.9,0.4L453.9,509.6z M450.9,516.1l-1-0.4l-1.3-0.3l-1.3-0.2c-0.4-0.1-0.9-0.1-1.3-0.1
			c-0.4,0-0.9,0-1.3,0c-0.4,0-0.9,0.1-1.3,0.1c-0.4,0.1-0.9,0.2-1.3,0.3c-0.4,0.1-0.9,0.3-1.3,0.4c-0.4,0.1-0.8,0.3-1.3,0.5
			c-0.4,0.2-0.8,0.4-1.2,0.6l-1.2,0.7l-1.1,0.8l-1,0.9l-0.9,1l-0.8,1.1l-0.7,1.2l0.1-0.3c-1.2,3.6-2.4,7.2-3.5,10.8
			c-1.1,3.6-2.2,7.2-3.2,10.9c-2.1,7.3-4.2,14.5-6.3,21.8l-6.1,21.9l-6,21.9l-0.2,0.4c-0.3,1.1-0.7,2.3-0.6,3.4
			c0,1.1,0.1,2.2,0.5,3.2c0.4,1,0.9,2,1.6,2.9c0.3,0.5,0.8,0.8,1.2,1.2c0.5,0.3,0.9,0.7,1.4,1c0.5,0.3,1,0.5,1.5,0.8
			c0.2,0.1,0.5,0.2,0.8,0.3c0.3,0.1,0.6,0.2,0.8,0.2c0.2,0,0.5,0.1,0.7,0.1l0.2,0l0.3,0l0.6,0.1l0.6,0.1l0.3,0l0.1,0l0,0l0,0
			c0.1,0-0.5-0.1-0.3,0l0.2,0l1.2,0.1l9.9,0.5l9.9,0.5l5,0.3c0.9,0.1,1.4,0,2,0c0.6-0.1,1.1-0.1,1.7-0.2c1.1-0.2,2.2-0.5,3.2-1
			c1-0.5,1.9-1.1,2.7-1.8c1.6-1.4,2.7-3.2,3.2-5.1l-0.1,0.5c0.4-3.4,1-6.9,1.5-10.3l1.5-10.3c1-6.9,2-13.7,3-20.6l6.2-41.1l0-0.2
			l0-0.2l0.2-0.9l0.1-0.9l0-0.9l-0.1-0.9l-0.1-0.9l-0.2-0.9l-0.3-0.8c-0.1-0.3-0.2-0.5-0.4-0.8c-0.2-0.3-0.3-0.5-0.5-0.8
			c-0.2-0.2-0.3-0.5-0.5-0.7c-0.2-0.2-0.4-0.5-0.6-0.7c-0.2-0.2-0.4-0.5-0.7-0.7c-0.2-0.2-0.5-0.4-0.7-0.6c-0.3-0.2-0.5-0.4-0.8-0.5
			l-0.8-0.5l-0.9-0.4l-0.5-0.2L450.9,516.1z"/>
	</g>
	<g>
		<path fill="#FFFFFF" d="M72.7,512.9l-11,6.3c-6.8,2.7-10.6,9.5-9.1,16.3L63.4,618c1.7,7.7,9.5,13.2,18,12.6l27-2
			c10.7-0.8,17.3-10.7,13.4-20.1l-26.7-86.8C91.5,513.5,81.3,509.4,72.7,512.9z"/>
		<path fill="#558AD8" stroke="#FFFFFF" stroke-width="16" stroke-miterlimit="10" d="M74.3,516.1l-10.6,6.5l-0.5,0.2l-0.9,0.4
			l-0.8,0.5c-0.3,0.2-0.5,0.4-0.8,0.5c-0.3,0.2-0.5,0.4-0.7,0.6c-0.2,0.2-0.4,0.4-0.7,0.7c-0.2,0.2-0.4,0.5-0.6,0.7
			c-0.2,0.2-0.3,0.5-0.5,0.7c-0.2,0.3-0.3,0.5-0.5,0.8c-0.1,0.3-0.2,0.5-0.4,0.8l-0.3,0.8l-0.2,0.9l-0.1,0.9l-0.1,0.9l0,0.9l0.1,0.9
			l0.2,0.9l0,0.2l0,0.2l6.2,41.1c1,6.9,2,13.7,3,20.6l1.5,10.3c0.5,3.4,1,6.9,1.5,10.3l-0.1-0.5c0.5,1.9,1.6,3.7,3.2,5.1
			c0.8,0.7,1.7,1.3,2.7,1.8c1,0.5,2.1,0.8,3.2,1c0.5,0.1,1.1,0.2,1.7,0.2c0.6,0,1,0,2,0l5-0.3l9.9-0.5l9.9-0.5l1.2-0.1l0.2,0
			c0.3,0-0.3,0-0.3,0l0,0l0,0l0.1,0l0.3,0l0.6-0.1l0.6-0.1l0.3,0l0.2,0c0.2-0.1,0.4-0.1,0.7-0.1c0.2,0,0.5-0.2,0.8-0.2
			c0.3-0.1,0.6-0.1,0.8-0.3c0.5-0.2,1.1-0.5,1.5-0.8c0.5-0.3,0.9-0.7,1.4-1c0.4-0.4,0.8-0.7,1.2-1.2c0.7-0.8,1.3-1.8,1.6-2.9
			c0.4-1,0.5-2.1,0.5-3.2c0-1.1-0.3-2.2-0.6-3.4l-0.2-0.4l-6-21.9l-6.1-21.9c-2.1-7.3-4.1-14.6-6.3-21.8c-1-3.6-2.1-7.3-3.2-10.9
			c-1.1-3.6-2.3-7.2-3.5-10.8l0.1,0.3l-0.7-1.2l-0.8-1.1l-0.9-1l-1-0.9l-1.1-0.8l-1.2-0.7c-0.4-0.2-0.8-0.4-1.2-0.6
			c-0.4-0.2-0.8-0.3-1.3-0.5c-0.4-0.1-0.9-0.3-1.3-0.4c-0.4-0.1-0.9-0.2-1.3-0.3c-0.5,0-0.9-0.1-1.3-0.1c-0.5,0-0.9,0-1.3,0
			c-0.4,0-0.9,0.1-1.3,0.1l-1.3,0.2l-1.3,0.3L74.3,516.1z M71.3,509.6l2-0.6c0.6-0.2,1.3-0.3,1.9-0.4c0.7-0.1,1.3-0.2,2-0.2
			c0.7,0,1.3,0,2,0c0.7,0,1.3,0.1,2,0.2c0.6,0.1,1.3,0.2,1.9,0.3c0.6,0.1,1.3,0.3,1.9,0.5c0.6,0.2,1.2,0.5,1.8,0.7
			c0.6,0.3,1.2,0.6,1.7,0.8c0.6,0.3,1.1,0.7,1.7,1c0.5,0.4,1,0.8,1.6,1.2c0.5,0.4,1,0.9,1.4,1.3c0.4,0.5,0.9,1,1.3,1.4l1.2,1.6
			l1,1.7l0.8,1.8l0.1,0.1l0,0.1c1,3.6,2.1,7.3,3.2,10.9c1.1,3.6,2.3,7.2,3.4,10.8c2.3,7.2,4.7,14.4,7,21.6l7.3,21.5l7.3,21.5
			l-0.2-0.4c0.8,2,1.5,4,1.6,6.2c0.2,2.2,0,4.4-0.7,6.5c-0.6,2.1-1.6,4.1-2.9,5.9c-0.6,0.9-1.4,1.7-2.1,2.5c-0.8,0.7-1.6,1.5-2.5,2
			c-0.9,0.6-1.8,1.1-2.8,1.6c-0.5,0.3-1,0.4-1.5,0.6c-0.5,0.2-1,0.4-1.6,0.5c-0.6,0.2-1.1,0.3-1.7,0.4l-0.4,0.1l-0.3,0.1l-0.6,0.1
			l-0.6,0.1l-0.3,0l-0.1,0l0,0l-0.3,0l-0.2,0l-1.2,0.1l-9.9,1l-9.9,0.9l-4.9,0.5c-0.7,0.1-1.9,0.1-3,0.2c-1.1,0-2.2-0.1-3.3-0.2
			c-4.3-0.6-8.5-2.5-11.8-5.4c-3.4-2.9-5.9-7-6.9-11.5l-0.1-0.2l0-0.3c-0.4-3.4-0.8-6.9-1.2-10.3l-1.2-10.3
			c-0.8-6.9-1.6-13.8-2.3-20.7l-4.4-41.3l0.1,0.4l-0.3-1.6l-0.1-1.7c0-0.6,0-1.1,0-1.7l0.2-1.7c0.1-0.5,0.2-1.1,0.4-1.6
			c0.2-0.5,0.3-1.1,0.5-1.6c0.2-0.5,0.4-1,0.6-1.5c0.3-0.5,0.5-1,0.8-1.4c0.3-0.5,0.6-0.9,0.9-1.4c0.3-0.4,0.6-0.9,1-1.3
			c0.4-0.4,0.7-0.8,1.1-1.2c0.4-0.4,0.8-0.7,1.2-1.1c0.4-0.3,0.8-0.7,1.3-1c0.4-0.3,0.9-0.6,1.3-0.8c0.5-0.2,0.9-0.5,1.4-0.7
			l1.4-0.6l-0.5,0.2L71.3,509.6z"/>
	</g>
	<path fill="none" stroke="#FFFFFF" stroke-width="17" stroke-miterlimit="10" d="M146.5,649.9c0,0,3.5,3.1,9.5,8.5
		c3.1,2.7,6.8,5.9,11,9.6c4.3,3.7,9.1,7.8,14.5,12.2c2.7,2.2,5.5,4.5,8.4,6.8c2.9,2.3,5.9,4.7,9,7.1c6.2,4.8,13,9.7,20,14.5
		c7.1,4.8,14.5,9.4,22.3,13.2c1,0.5,1.9,0.9,2.9,1.4l1.5,0.7l1.5,0.6c1,0.4,2,0.8,3,1.2l3,1c0.5,0.2,1,0.3,1.5,0.4l1.5,0.4l1.5,0.4
		l1.4,0.2c0.9,0.1,1.9,0.4,2.8,0.4l1.4,0.1l0.7,0c-0.2,0,0.5,0-0.3,0l0.1,0l0.2,0l0.4,0l1.7-0.1l0.9-0.1l0.4,0l0.3-0.1
		c0.8-0.2,1.7-0.3,2.5-0.5c1.9-0.5,3.9-0.9,5.9-1.7c2-0.6,4-1.5,5.9-2.3c1-0.4,2-0.9,2.9-1.3c1-0.5,2-0.9,2.9-1.4
		c7.8-3.9,15.3-8.5,22.3-13.2c7.1-4.8,13.8-9.6,20.1-14.4c6.3-4.8,12.2-9.4,17.5-13.8c5.4-4.4,10.3-8.4,14.6-12.1
		c4.3-3.7,8-6.9,11.1-9.5c6.1-5.3,9.6-8.4,9.6-8.4l4.3,4.2c0,0-0.8,0.9-2.2,2.6c-1.5,1.6-3.6,4.1-6.4,7.1c-2.8,3-6.2,6.6-10.2,10.7
		c-4,4.1-8.6,8.6-13.8,13.4c-5.1,4.8-10.8,9.9-17,15.1c-6.2,5.2-12.9,10.6-20.1,15.8c-7.3,5.2-15,10.3-23.5,14.8
		c-1,0.6-2.2,1.1-3.2,1.6c-1.1,0.5-2.2,1.1-3.3,1.6c-2.3,1-4.5,2-7,2.8c-2.4,0.9-4.9,1.5-7.5,2.2c-1.4,0.3-2.9,0.5-4.4,0.7l-0.5,0.1
		l-0.4,0l-0.9,0.1l-1.7,0.1l-0.4,0l-0.2,0l-0.1,0c-0.9,0-0.3,0-0.5,0l-1.1-0.1l-2.1-0.1c-1.4,0-2.7-0.3-4.1-0.6l-2-0.4l-1.9-0.5
		l-1.9-0.5c-0.6-0.2-1.3-0.3-1.9-0.6l-3.6-1.3c-1.2-0.4-2.3-1-3.5-1.4l-1.7-0.7l-1.7-0.8c-1.1-0.5-2.2-1.1-3.3-1.6
		c-4.3-2.2-8.4-4.6-12.3-7.1c-1-0.6-2-1.2-2.9-1.9c-0.9-0.6-1.9-1.3-2.8-1.9c-1.9-1.3-3.7-2.6-5.5-3.9c-7.2-5.2-13.9-10.7-20-15.9
		c-3.1-2.6-6-5.2-8.9-7.8c-2.8-2.6-5.5-5.1-8-7.5c-5.1-4.8-9.7-9.4-13.6-13.5c-4-4.1-7.4-7.8-10.1-10.8c-2.8-3-4.9-5.5-6.3-7.1
		c-1.4-1.7-2.2-2.6-2.2-2.6L146.5,649.9z"/>
	<polygon fill="#F7D5B0" points="127.7,481 170.3,457.7 299.7,455.7 357.7,455.7 401.7,487 426.3,545 403.5,608.5 385.9,655.1 
		366.3,669 319.7,711 286.3,727.7 260.3,736.3 240.3,727.7 210.3,713 177,686.3 153,665.7 141.7,652.3 119.7,599 115,516.3 	"/>
	<path fill="#C1A47A" d="M146.5,649.9c0,0,3.5,3.1,9.5,8.5c3.1,2.7,6.8,5.9,11,9.6c4.3,3.7,9.1,7.8,14.5,12.2
		c2.7,2.2,5.5,4.5,8.4,6.8c2.9,2.3,5.9,4.7,9,7.1c6.2,4.8,13,9.7,20,14.5c7.1,4.8,14.5,9.4,22.3,13.2c1,0.5,1.9,0.9,2.9,1.4l1.5,0.7
		l1.5,0.6c1,0.4,2,0.8,3,1.2l3,1c0.5,0.2,1,0.3,1.5,0.4l1.5,0.4l1.5,0.4l1.4,0.2c0.9,0.1,1.9,0.4,2.8,0.4l1.4,0.1l0.7,0
		c-0.2,0,0.5,0-0.3,0l0.1,0l0.2,0l0.4,0l1.7-0.1l0.9-0.1l0.4,0l0.3-0.1c0.8-0.2,1.7-0.3,2.5-0.5c1.9-0.5,3.9-0.9,5.9-1.7
		c2-0.6,4-1.5,5.9-2.3c1-0.4,2-0.9,2.9-1.3c1-0.5,2-0.9,2.9-1.4c7.8-3.9,15.3-8.5,22.3-13.2c7.1-4.8,13.8-9.6,20.1-14.4
		c6.3-4.8,12.2-9.4,17.5-13.8c5.4-4.4,10.3-8.4,14.6-12.1c4.3-3.7,8-6.9,11.1-9.5c6.1-5.3,9.6-8.4,9.6-8.4l4.3,4.2
		c0,0-0.8,0.9-2.2,2.6c-1.5,1.6-3.6,4.1-6.4,7.1c-2.8,3-6.2,6.6-10.2,10.7c-4,4.1-8.6,8.6-13.8,13.4c-5.1,4.8-10.8,9.9-17,15.1
		c-6.2,5.2-12.9,10.6-20.1,15.8c-7.3,5.2-15,10.3-23.5,14.8c-1,0.6-2.2,1.1-3.2,1.6c-1.1,0.5-2.2,1.1-3.3,1.6c-2.3,1-4.5,2-7,2.8
		c-2.4,0.9-4.9,1.5-7.5,2.2c-1.4,0.3-2.9,0.5-4.4,0.7l-0.5,0.1l-0.4,0l-0.9,0.1l-1.7,0.1l-0.4,0l-0.2,0l-0.1,0c-0.9,0-0.3,0-0.5,0
		l-1.1-0.1l-2.1-0.1c-1.4,0-2.7-0.3-4.1-0.6l-2-0.4l-1.9-0.5l-1.9-0.5c-0.6-0.2-1.3-0.3-1.9-0.6l-3.6-1.3c-1.2-0.4-2.3-1-3.5-1.4
		l-1.7-0.7l-1.7-0.8c-1.1-0.5-2.2-1.1-3.3-1.6c-4.3-2.2-8.4-4.6-12.3-7.1c-1-0.6-2-1.2-2.9-1.9c-0.9-0.6-1.9-1.3-2.8-1.9
		c-1.9-1.3-3.7-2.6-5.5-3.9c-7.2-5.2-13.9-10.7-20-15.9c-3.1-2.6-6-5.2-8.9-7.8c-2.8-2.6-5.5-5.1-8-7.5c-5.1-4.8-9.7-9.4-13.6-13.5
		c-4-4.1-7.4-7.8-10.1-10.8c-2.8-3-4.9-5.5-6.3-7.1c-1.4-1.7-2.2-2.6-2.2-2.6L146.5,649.9z"/>
</g>
<g id="Face_Placeholder_copy_3">
</g>
<g id="Face">
</g>
<g id="Sides_of_Helmet">
	<g>
		<path fill="#558AD8" d="M233.3,505.7c-10.1-13.1-40-47.1-69.4-31.7c-0.1,0-0.1,0.1-0.2,0.1c-58.5,23.9-30.4,137.4-18.4,177.4
			c1.1,3.7-3.5,6.4-6.2,3.7c-19.4-19.9-58.8-65.4-63.3-111.1c-5.6-57,72.5-98.2,82.9-103.4c0.7-0.4,1.5-0.5,2.3-0.3l98.4,18.5
			c2.4,0.5,3.7,3.1,2.6,5.3l-22.5,41.1C238.3,507.5,235,507.8,233.3,505.7z"/>
	</g>
	<g>
		<path fill="#558AD8" d="M291.7,505.7c10.1-13.1,40-47.1,69.4-31.7c0.1,0,0.1,0.1,0.2,0.1c58.5,23.9,30.4,137.4,18.4,177.4
			c-1.1,3.7,3.5,6.4,6.2,3.7c19.4-19.9,58.8-65.4,63.3-111.1c5.6-57-72.5-98.2-82.9-103.4c-0.7-0.4-1.5-0.5-2.3-0.3l-98.4,18.5
			c-2.4,0.5-3.7,3.1-2.6,5.3l22.5,41.1C286.7,507.5,290,507.8,291.7,505.7z"/>
	</g>
	<g>
		<path fill="#FFFFFF" d="M160.3,440.2c0.2,0,0.5,0,0.7,0.1l98.4,18.5c2.4,0.5,3.7,3.1,2.6,5.3l-22.5,41.1c-0.7,1.3-2,2.1-3.3,2.1
			c-1.1,0-2.2-0.5-2.9-1.4c-8.3-10.7-30-35.6-53.7-35.6c-5.2,0-10.4,1.2-15.6,3.9c-0.1,0-0.1,0.1-0.2,0.1
			c-58.5,23.9-30.4,137.4-18.4,177.4c0.8,2.6-1.3,4.8-3.6,4.8c-0.9,0-1.8-0.3-2.6-1.1c-19.4-19.9-58.8-65.4-63.3-111.1
			c-5.6-57,72.5-98.2,82.9-103.4C159.2,440.3,159.8,440.2,160.3,440.2 M160.3,430.2c-2.1,0-4.3,0.5-6.2,1.5
			c-6.4,3.2-28.9,15.2-49.6,33.8c-12.3,11.1-21.8,22.6-28.4,34.2c-8.4,14.9-11.8,30.2-10.4,45.3c2.1,21.6,11.4,45,27.7,69.8
			c13.2,20.1,28.2,36.8,38.5,47.3c2.6,2.7,6.1,4.1,9.8,4.1c4.3,0,8.5-2.1,11.1-5.6c2.6-3.5,3.4-7.9,2.1-12.1
			c-5.8-19.3-15.7-56.9-16.8-92.2c-1.3-40,8.6-64.6,29.4-73.1c0.4-0.1,0.7-0.3,1.1-0.5c3.6-1.9,7.1-2.8,11-2.8
			c19.9,0,40.1,24.3,45.8,31.7c2.6,3.4,6.6,5.3,10.9,5.3c5.1,0,9.8-2.8,12.2-7.4l22.5-40.9l0.1-0.2l0.1-0.2c1.9-3.9,1.9-8.3,0-12.2
			c-1.9-3.9-5.5-6.6-9.7-7.4l-98.4-18.5C162.1,430.2,161.2,430.2,160.3,430.2L160.3,430.2z"/>
	</g>
	<g>
		<path fill="#FFFFFF" d="M364.6,440.2c0.6,0,1.1,0.1,1.7,0.4c10.4,5.2,88.5,46.5,82.9,103.4c-4.5,45.8-43.9,91.3-63.3,111.1
			c-0.8,0.8-1.7,1.1-2.6,1.1c-2.3,0-4.4-2.1-3.6-4.8c12-40,40.1-153.6-18.4-177.4c-0.1,0-0.1-0.1-0.2-0.1
			c-5.2-2.7-10.5-3.9-15.6-3.9c-23.8,0-45.5,24.9-53.7,35.6c-0.8,1-1.8,1.4-2.9,1.4c-1.3,0-2.6-0.7-3.3-2.1L262.9,464
			c-1.1-2.2,0.2-4.8,2.6-5.3l98.4-18.5C364.2,440.2,364.4,440.2,364.6,440.2 M364.6,430.2c-0.9,0-1.7,0.1-2.5,0.2l-98.4,18.5
			c-4.3,0.8-7.8,3.5-9.7,7.4c-1.9,3.9-1.9,8.3,0,12.2l0.1,0.2l0.1,0.2l22.5,40.9c2.4,4.5,7,7.4,12.2,7.4c4.3,0,8.2-1.9,10.9-5.3
			c5.7-7.4,26-31.7,45.8-31.7c3.8,0,7.4,0.9,11,2.8c0.3,0.2,0.7,0.4,1.1,0.5c20.9,8.5,30.8,33.1,29.4,73.1
			c-1.2,35.3-11.1,73-16.8,92.2c-1.3,4.2-0.5,8.6,2.1,12.1c2.6,3.5,6.7,5.6,11.1,5.6c3.7,0,7.1-1.5,9.8-4.1
			c10.3-10.5,25.3-27.3,38.5-47.3c16.2-24.8,25.5-48.2,27.7-69.8c1.5-15.1-2-30.4-10.4-45.3c-6.5-11.7-16.1-23.2-28.4-34.2
			c-20.8-18.7-43.2-30.6-49.6-33.8C368.9,430.7,366.8,430.2,364.6,430.2L364.6,430.2z"/>
	</g>
</g>
<g id="Helmet">
	<g id="Layer_2_copy">
		<g>
			<path fill="#558AD8" d="M262.3,288c34.2,0,82.9,2,130.9,10.5c7.4,1.3,14.5-3.4,16.2-10.7l13.6-58c1.8-7.6-3-15.3-10.6-17
				C380.6,205.6,331,198,262.3,198c-68.6,0-118.1,7.6-149.9,14.8c-7.6,1.8-12.4,9.4-10.6,17l13.6,58c1.7,7.3,8.8,12,16.2,10.7
				C162.2,293.1,205.8,288,262.3,288z"/>
			<path fill="#558AD8" d="M387.2,382.9l11.6-49.4c1.9-8.2-3.4-16.3-11.7-17.7c-30.8-5.3-72.2-9.8-124.8-9.8
				c-52.5,0-93.8,4.4-124.5,9.8c-8.3,1.4-13.6,9.5-11.7,17.7l11.6,49.4c1.7,7.3,8.7,12.2,16.2,11.1c28.3-3.9,64.5-7,108.4-7
				c29,0,68.2,1.4,108.7,7C378.5,395,385.5,390.2,387.2,382.9z"/>
			<path fill="#558AD8" d="M110.6,194.7c30-6.7,80.6-14.7,151.7-14.7c39.2,0,97.4,2.6,151.8,14.7c0.1,0,0.1,0,0.2,0
				c8.9,2,17.8-3.5,19.9-12.4l22.5-96.1c2-8.4-2.8-16.9-11-19.6C420.4,58.2,360.9,43,262.3,43c-98.5,0-157.9,15.2-183.2,23.6
				C71,69.3,66.2,77.8,68.2,86.2l22.5,96.2c2.1,8.8,10.9,14.3,19.7,12.3C110.5,194.7,110.6,194.7,110.6,194.7z"/>
			<path fill="#558AD8" d="M262.3,405c-42.1,0-77.1,2.8-105.1,6.7c-6.6,0.9-11.1,7.4-9.5,13.9L152,444c1.2,5.2,5.8,8.8,11.1,8.8
				h198.7c5.3,0,9.9-3.6,11.1-8.8l4.3-18.4c1.5-6.5-2.9-13-9.5-13.9C339.6,407.9,304.6,405,262.3,405z"/>
		</g>
	</g>
	<g id="drive_dots">
		
			<circle fill="#F43131" stroke="#FFFFFF" stroke-width="8" stroke-linejoin="round" stroke-miterlimit="10" cx="136.3" cy="125.5" r="16"/>
		<circle fill="#FFFFFF" cx="156.3" cy="251.3" r="14"/>
		<circle fill="#FFFFFF" cx="172.3" cy="352.7" r="12"/>
		<path fill="none" stroke="#FFFFFF" stroke-width="20" stroke-linecap="round" stroke-miterlimit="10" d="M519.7,153.7"/>
		<rect x="23.4" y="763" fill="none" width="478.5" height="158"/>
		<text transform="matrix(1 0 0 1 53.3749 860.7002)"><tspan x="0" y="0" fill="#558AD8" font-family="'FjallaOne-Regular'" font-size="110px">mega</tspan><tspan x="234.1" y="0" fill="#F43131" font-family="'FjallaOne-Regular'" font-size="110px">map</tspan></text>
	</g>
	<g id="drive_lines">
		<path fill="#F43131" stroke="#FFFFFF" stroke-width="8" stroke-linejoin="round" stroke-miterlimit="10" d="M387.7,139.8
			c-1.3,0-2.5-0.2-3.8-0.5c-14.5-4.2-58.6-12.1-121.5-12.1c-23.8,0-46.7,1.1-68,3.3c-7.4,0.7-14-4.6-14.8-12.1
			c-0.8-7.4,4.6-14,12.1-14.8c22.2-2.2,45.9-3.4,70.7-3.4c83,0,127.3,12.7,129.1,13.2c7.2,2.1,11.3,9.6,9.2,16.8
			C398.9,136,393.5,139.8,387.7,139.8z"/>
		<path fill="none" stroke="#FFFFFF" stroke-width="25" stroke-linecap="round" stroke-miterlimit="10" d="M370.8,251.5"/>
		<path fill="#FFFFFF" d="M367.2,262.8c-0.7,0-1.5-0.1-2.2-0.2c-0.4-0.1-38.3-8-102.8-8.9c-25-0.4-52.9,2.8-53.2,2.8
			c-5.8,0.6-11-3.5-11.6-9.2c-0.7-5.8,3.5-11,9.2-11.6c1.2-0.1,29.5-3.3,55.9-3c66.8,1,105.2,9,106.8,9.4c5.7,1.2,9.3,6.8,8.1,12.5
			C376.4,259.4,372,262.8,367.2,262.8z"/>
		<path fill="#FFFFFF" d="M350.8,361c-0.3,0-0.6,0-0.9,0c-0.5,0-51-5-87.6-5c-11.3,0-24.9,0.5-40.5,1.4c-5,0.3-9.2-3.5-9.5-8.5
			c-0.3-5,3.5-9.2,8.5-9.5c15.9-0.9,29.9-1.4,41.5-1.4c37.5,0,87.3,4.8,89.4,5c4.9,0.5,8.6,4.9,8.1,9.8
			C359.3,357.5,355.4,361,350.8,361z"/>
	</g>
</g>
<g id="M_copy">
	<polygon fill="#FFFFFF" points="248.6,510 279.6,511 272.6,524.5 254.5,524.5 	"/>
	<g>
		<path fill="#F43131" d="M248.8,530.9c-1.7,0-3.6-0.3-5.6-0.9c-5.6-1.7-21.7-22-31.3-41.2c-10.3-20.7-12.9-39.1-7.6-53.2l0.3-0.9
			l0.7-0.7c8.3-8.3,20.7-8.3,30.7-8.3h1c9.1,0,19.4,14.9,25.5,25.2c6-10.3,16.3-25.2,25.5-25.2h1c10,0,22.3,0,30.7,8.3l0.7,0.7
			l0.3,0.9c5.3,14.1,2.6,32.5-7.6,53.2c-9.6,19.3-25.7,39.6-31.3,41.2c-2,0.6-3.9,0.9-5.6,0.9c0,0,0,0,0,0c-4.9,0-8.5-2.5-9.9-6.8
			c-0.3-1-1.1-3.2,2.5-15.4c-3.8,3.5-5.1,3.5-6.2,3.5c-1.2,0-2.5,0-6.3-3.5c3.6,12.3,2.9,14.5,2.5,15.5
			C257.3,528.4,253.7,530.9,248.8,530.9z"/>
		<path fill="#FFFFFF" d="M289,430.1c9.7,0,20.6,0.1,27.5,7c13,34.8-31,87-36,88.5c-1.6,0.5-3,0.7-4.3,0.7c-2.8,0-4.8-1.2-5.7-3.7
			c-1.2-3.8,9.5-33.5,9.5-33.5s-15,18.5-17.5,18.5S245,489.2,245,489.2s10.8,29.8,9.5,33.5c-0.9,2.6-2.9,3.7-5.7,3.7
			c-1.3,0-2.8-0.2-4.3-0.7c-5-1.5-49-53.8-36-88.5c6.9-6.9,17.7-7,27.5-7c0.3,0,0.7,0,1,0c9.9,0,25.5,30,25.5,30s15.5-30,25.5-30
			C288.3,430.1,288.7,430.1,289,430.1 M289,421.1l-0.5,0l-0.5,0c-7.6,0-15,5.8-23.9,18.9c-0.5,0.8-1.1,1.6-1.6,2.4
			c-0.5-0.8-1-1.6-1.6-2.4c-9-13.1-16.3-18.9-23.9-18.9l-0.5,0l-0.5,0c-10.2,0-24.2,0-33.8,9.6l-1.4,1.4l-0.7,1.8
			c-5.8,15.5-3.2,34.6,7.8,56.7c6.4,12.9,14.1,23.4,18.1,28.6c10.4,13.3,14.3,14.5,15.9,15c2.4,0.7,4.8,1.1,6.9,1.1
			c6.3,0,11.3-3.1,13.7-8.5c2.4,5.3,7.4,8.4,13.6,8.4c2.2,0,4.5-0.4,6.9-1.1c1.6-0.5,5.5-1.6,15.9-15c4-5.1,11.7-15.6,18.1-28.6
			c11-22.1,13.6-41.2,7.8-56.7l-0.7-1.8l-1.4-1.4C313.2,421.1,299.2,421.1,289,421.1L289,421.1z"/>
	</g>
	<g>
		<path fill="#FFFFFF" d="M222,446.6c0,0-0.1,0.7-0.3,2c-0.1,0.6-0.2,1.4-0.3,2.3c0,0.8-0.1,1.7-0.2,2.6c0,0.5-0.1,1-0.1,1.5
			c0,0.6,0,1.1,0,1.7c0,0.6,0,1.2,0,1.8c0,0.6,0.1,1.3,0.1,1.9c0,0.7,0.1,1.3,0.2,2c0.1,0.7,0.2,1.3,0.3,2c0.1,0.7,0.2,1.4,0.3,2.1
			c0.1,0.7,0.3,1.4,0.4,2.1c0.2,1.4,0.6,2.8,0.9,4.1c0.3,1.4,0.8,2.7,1.1,4c0.4,1.3,0.8,2.5,1.3,3.7c0.4,1.2,0.8,2.2,1.3,3.2
			c0.4,1,0.8,1.9,1.2,2.7c0.4,0.8,0.7,1.5,1,2c0.3,0.6,0.5,1,0.7,1.3c0.1,0.3,0.2,0.4,0.2,0.4l0.1,0.1c0.7,1.2,0.2,2.7-1,3.4
			c-1.1,0.6-2.5,0.3-3.2-0.8c0,0-0.1-0.2-0.3-0.5c-0.2-0.3-0.5-0.8-0.9-1.3c-0.4-0.6-0.8-1.3-1.3-2.1c-0.5-0.8-1-1.7-1.6-2.7
			c-0.6-1-1.1-2.1-1.7-3.3c-0.6-1.2-1.2-2.5-1.8-3.8c-0.6-1.3-1.2-2.7-1.7-4.1c-0.5-1.4-1.1-2.9-1.5-4.4c-0.2-0.7-0.5-1.5-0.7-2.2
			c-0.2-0.7-0.4-1.5-0.6-2.3c-0.2-0.8-0.4-1.5-0.6-2.2c-0.1-0.7-0.3-1.5-0.4-2.2c-0.1-0.7-0.3-1.4-0.4-2.2c-0.1-0.7-0.2-1.4-0.3-2.1
			c-0.1-0.7-0.2-1.3-0.2-2c-0.1-0.6-0.1-1.3-0.1-1.9c0-1.3-0.1-2.4-0.1-3.4c0-0.9,0-1.7,0.1-2.3c0-1.3,0.1-2,0.1-2
			c0.1-2.8,2.4-5,5.2-5s5,2.4,5,5.2C222,446.3,222,446.5,222,446.6z"/>
	</g>
</g>
<g id="M_copy_2">
	<path fill="#F43131" stroke="#FFFFFF" stroke-width="5" stroke-linejoin="round" stroke-miterlimit="10" d="M316.5,437.1
		c-7.1-7.1-18.5-7-28.5-7s-25.5,30-25.5,30s-15.6-30-25.5-30c-10,0-21.4-0.1-28.5,7c-13,34.8,31,87,36,88.5s8.8,0.8,10-3
		s-9.5-33.5-9.5-33.5s15,18.4,17.5,18.4s17.5-18.5,17.5-18.5s-10.8,29.8-9.5,33.5s5,4.5,10,3S329.5,471.9,316.5,437.1z"/>
</g>
<g id="Layer_16">
</g>
<g id="Layer_17">
	<circle fill="#7A716C" cx="326.6" cy="556.2" r="31.2"/>
	<circle fill="#7A716C" cx="193.6" cy="556.2" r="31.2"/>
	<g>
		<path fill="#C1A47A" d="M270.1,689.1C270.1,689.1,270.2,689.2,270.1,689.1c0.1,0,0.1,0,0.2,0c0,0,0.1,0,0.2,0
			c0.2,0,0.6,0.1,1.2,0.1c1.1,0.1,2.6,0.1,4.5-0.1c1.8-0.2,4-0.5,6.1-1.2c1.1-0.3,2.1-0.7,3.2-1.2c1-0.5,2-1,3-1.7
			c0.5-0.3,0.9-0.6,1.4-1c0.5-0.3,0.9-0.7,1.3-1.1c0.8-0.7,1.6-1.5,2.3-2.3c0.7-0.8,1.3-1.6,1.9-2.4c0.3-0.4,0.5-0.8,0.8-1.2
			c0.2-0.4,0.5-0.8,0.7-1.2c0.4-0.8,0.8-1.5,1.1-2.2c0.3-0.7,0.6-1.2,0.7-1.7c0.4-1,0.6-1.5,0.6-1.5l0.1-0.3
			c1.6-4.2,6.2-6.3,10.4-4.7c4.2,1.6,6.3,6.2,4.7,10.4c-0.1,0.3-0.3,0.7-0.4,1c0,0-0.4,0.7-1.1,2.1c-0.3,0.7-0.8,1.4-1.4,2.3
			c-0.5,0.9-1.2,1.9-2,2.9c-0.4,0.5-0.8,1.1-1.3,1.6c-0.4,0.6-0.9,1.1-1.4,1.7c-1,1.1-2.1,2.3-3.4,3.4c-1.2,1.1-2.6,2.2-4.1,3.1
			c-0.7,0.5-1.5,1-2.2,1.4c-0.8,0.4-1.5,0.8-2.3,1.2c-1.6,0.8-3.2,1.4-4.9,1.9c-1.6,0.5-3.3,0.9-4.8,1.2c-3.2,0.5-6.1,0.6-8.6,0.5
			c-2.5-0.1-4.5-0.4-6-0.7c-0.7-0.1-1.3-0.3-1.7-0.4c-0.5-0.1-0.7-0.2-0.7-0.2c-2.7-0.6-4.3-3.3-3.7-6
			C264.8,690.2,267.5,688.5,270.1,689.1z"/>
	</g>
	<g>
		<path fill="#C1A47A" d="M271.7,557.1l-23.4,92.4l-8.3-11.1l28.4,3.7c2.8,0.4,4.7,2.9,4.4,5.6c-0.3,2.3-2.1,4.1-4.4,4.4l-28.4,3.7
			c-4.4,0.6-8.3-2.5-8.9-6.9c-0.2-1.2,0-2.4,0.3-3.5l0.3-0.7l30.4-90.3c0.9-2.6,3.7-4,6.3-3.1C270.9,552,272.3,554.6,271.7,557.1z"
			/>
	</g>
	<circle fill="#FFFFFF" cx="332" cy="551.2" r="10.5"/>
	<circle fill="#FFFFFF" cx="206.3" cy="551.5" r="10.5"/>
</g>
<g id="Layer_15">
	<g>
		<path fill="#FFFFFF" d="M452.5,512.9l11,6.3c6.8,2.7,10.6,9.5,9.1,16.3L461.9,618c-1.7,7.7-9.5,13.2-18,12.6l-27-2
			c-10.7-0.8-17.3-10.7-13.4-20.1l26.7-86.8C433.7,513.5,443.9,509.4,452.5,512.9z"/>
		<path fill="#558AD8" d="M453.9,509.6l11.5,6.3l-0.5-0.2l1.4,0.6c0.5,0.2,0.9,0.5,1.4,0.7c0.5,0.3,0.9,0.6,1.3,0.8
			c0.4,0.3,0.9,0.6,1.3,1c0.4,0.3,0.8,0.7,1.2,1.1c0.4,0.4,0.7,0.8,1.1,1.2c0.4,0.4,0.7,0.8,1,1.3c0.3,0.4,0.6,0.9,0.9,1.4
			c0.3,0.5,0.5,1,0.8,1.4c0.2,0.5,0.4,1,0.6,1.5c0.2,0.5,0.3,1.1,0.5,1.6c0.1,0.5,0.2,1.1,0.4,1.6l0.2,1.7c0,0.6,0,1.1,0,1.7
			l-0.1,1.7l-0.3,1.6l0.1-0.4l-4.4,41.3c-0.7,6.9-1.5,13.8-2.3,20.7l-1.2,10.3c-0.4,3.4-0.8,6.9-1.2,10.3l0,0.3l-0.1,0.2
			c-1,4.5-3.5,8.6-6.9,11.5c-3.4,2.9-7.5,4.8-11.8,5.4c-1.1,0.2-2.2,0.2-3.3,0.2c-1.1,0-2.3-0.1-3-0.2l-4.9-0.5l-9.9-0.9l-9.9-1
			l-1.2-0.1l-0.2,0l-0.3,0l0,0l-0.1,0l-0.3,0l-0.6-0.1l-0.6-0.1l-0.3-0.1l-0.4-0.1c-0.6-0.1-1.2-0.3-1.7-0.4c-0.6-0.1-1-0.4-1.6-0.5
			c-0.5-0.2-1-0.4-1.5-0.6c-1-0.5-1.9-1-2.8-1.6c-0.9-0.6-1.7-1.3-2.5-2c-0.7-0.8-1.5-1.6-2.1-2.5c-1.3-1.7-2.3-3.8-2.9-5.9
			c-0.7-2.1-0.8-4.4-0.7-6.5c0.1-2.2,0.8-4.3,1.6-6.2l-0.2,0.4l7.3-21.5l7.3-21.5c2.4-7.2,4.7-14.4,7-21.6c1.2-3.6,2.3-7.2,3.4-10.8
			c1.1-3.6,2.1-7.3,3.2-10.9l0-0.1l0.1-0.1l0.8-1.8l1-1.7l1.2-1.6c0.4-0.5,0.9-1,1.3-1.4c0.5-0.4,1-0.9,1.4-1.3
			c0.5-0.4,1-0.8,1.6-1.2c0.6-0.3,1.1-0.7,1.7-1c0.6-0.3,1.2-0.6,1.8-0.8c0.6-0.2,1.2-0.5,1.8-0.7c0.6-0.2,1.2-0.4,1.9-0.5
			c0.6-0.1,1.3-0.2,1.9-0.3c0.7-0.1,1.3-0.1,2-0.2c0.7,0,1.3,0,2,0c0.7,0.1,1.3,0.1,2,0.2c0.6,0.1,1.3,0.3,1.9,0.4L453.9,509.6z
			 M450.9,516.1l-1-0.4l-1.3-0.3l-1.3-0.2c-0.4-0.1-0.9-0.1-1.3-0.1c-0.4,0-0.9,0-1.3,0c-0.4,0-0.9,0.1-1.3,0.1
			c-0.4,0.1-0.9,0.2-1.3,0.3c-0.4,0.1-0.9,0.3-1.3,0.4c-0.4,0.1-0.8,0.3-1.3,0.5c-0.4,0.2-0.8,0.4-1.2,0.6l-1.2,0.7l-1.1,0.8l-1,0.9
			l-0.9,1l-0.8,1.1l-0.7,1.2l0.1-0.3c-1.2,3.6-2.4,7.2-3.5,10.8c-1.1,3.6-2.2,7.2-3.2,10.9c-2.1,7.3-4.2,14.5-6.3,21.8l-6.1,21.9
			l-6,21.9l-0.2,0.4c-0.3,1.1-0.7,2.3-0.6,3.4c0,1.1,0.1,2.2,0.5,3.2c0.4,1,0.9,2,1.6,2.9c0.3,0.5,0.8,0.8,1.2,1.2
			c0.5,0.3,0.9,0.7,1.4,1c0.5,0.3,1,0.5,1.5,0.8c0.2,0.1,0.5,0.2,0.8,0.3c0.3,0.1,0.6,0.2,0.8,0.2c0.2,0,0.5,0.1,0.7,0.1l0.2,0
			l0.3,0l0.6,0.1l0.6,0.1l0.3,0l0.1,0l0,0l0,0c0.1,0-0.5-0.1-0.3,0l0.2,0l1.2,0.1l9.9,0.5l9.9,0.5l5,0.3c0.9,0.1,1.4,0,2,0
			c0.6-0.1,1.1-0.1,1.7-0.2c1.1-0.2,2.2-0.5,3.2-1c1-0.5,1.9-1.1,2.7-1.8c1.6-1.4,2.7-3.2,3.2-5.1l-0.1,0.5c0.4-3.4,1-6.9,1.5-10.3
			l1.5-10.3c1-6.9,2-13.7,3-20.6l6.2-41.1l0-0.2l0-0.2l0.2-0.9l0.1-0.9l0-0.9l-0.1-0.9l-0.1-0.9l-0.2-0.9l-0.3-0.8
			c-0.1-0.3-0.2-0.5-0.4-0.8c-0.2-0.3-0.3-0.5-0.5-0.8c-0.2-0.2-0.3-0.5-0.5-0.7c-0.2-0.2-0.4-0.5-0.6-0.7c-0.2-0.2-0.4-0.5-0.7-0.7
			c-0.2-0.2-0.5-0.4-0.7-0.6c-0.3-0.2-0.5-0.4-0.8-0.5l-0.8-0.5l-0.9-0.4l-0.5-0.2L450.9,516.1z"/>
	</g>
	<g>
		<path fill="#FFFFFF" d="M72.7,512.9l-11,6.3c-6.8,2.7-10.6,9.5-9.1,16.3L63.4,618c1.7,7.7,9.5,13.2,18,12.6l27-2
			c10.7-0.8,17.3-10.7,13.4-20.1l-26.7-86.8C91.5,513.5,81.3,509.4,72.7,512.9z"/>
		<path fill="#558AD8" d="M74.3,516.1l-10.6,6.5l-0.5,0.2l-0.9,0.4l-0.8,0.5c-0.3,0.2-0.5,0.4-0.8,0.5c-0.3,0.2-0.5,0.4-0.7,0.6
			c-0.2,0.2-0.4,0.4-0.7,0.7c-0.2,0.2-0.4,0.5-0.6,0.7c-0.2,0.2-0.3,0.5-0.5,0.7c-0.2,0.3-0.3,0.5-0.5,0.8c-0.1,0.3-0.2,0.5-0.4,0.8
			l-0.3,0.8l-0.2,0.9l-0.1,0.9l-0.1,0.9l0,0.9l0.1,0.9l0.2,0.9l0,0.2l0,0.2l6.2,41.1c1,6.9,2,13.7,3,20.6l1.5,10.3
			c0.5,3.4,1,6.9,1.5,10.3l-0.1-0.5c0.5,1.9,1.6,3.7,3.2,5.1c0.8,0.7,1.7,1.3,2.7,1.8c1,0.5,2.1,0.8,3.2,1c0.5,0.1,1.1,0.2,1.7,0.2
			c0.6,0,1,0,2,0l5-0.3l9.9-0.5l9.9-0.5l1.2-0.1l0.2,0c0.3,0-0.3,0-0.3,0l0,0l0,0l0.1,0l0.3,0l0.6-0.1l0.6-0.1l0.3,0l0.2,0
			c0.2-0.1,0.4-0.1,0.7-0.1c0.2,0,0.5-0.2,0.8-0.2c0.3-0.1,0.6-0.1,0.8-0.3c0.5-0.2,1.1-0.5,1.5-0.8c0.5-0.3,0.9-0.7,1.4-1
			c0.4-0.4,0.8-0.7,1.2-1.2c0.7-0.8,1.3-1.8,1.6-2.9c0.4-1,0.5-2.1,0.5-3.2c0-1.1-0.3-2.2-0.6-3.4l-0.2-0.4l-6-21.9l-6.1-21.9
			c-2.1-7.3-4.1-14.6-6.3-21.8c-1-3.6-2.1-7.3-3.2-10.9c-1.1-3.6-2.3-7.2-3.5-10.8l0.1,0.3l-0.7-1.2l-0.8-1.1l-0.9-1l-1-0.9
			l-1.1-0.8l-1.2-0.7c-0.4-0.2-0.8-0.4-1.2-0.6c-0.4-0.2-0.8-0.3-1.3-0.5c-0.4-0.1-0.9-0.3-1.3-0.4c-0.4-0.1-0.9-0.2-1.3-0.3
			c-0.5,0-0.9-0.1-1.3-0.1c-0.5,0-0.9,0-1.3,0c-0.4,0-0.9,0.1-1.3,0.1l-1.3,0.2l-1.3,0.3L74.3,516.1z M71.3,509.6l2-0.6
			c0.6-0.2,1.3-0.3,1.9-0.4c0.7-0.1,1.3-0.2,2-0.2c0.7,0,1.3,0,2,0c0.7,0,1.3,0.1,2,0.2c0.6,0.1,1.3,0.2,1.9,0.3
			c0.6,0.1,1.3,0.3,1.9,0.5c0.6,0.2,1.2,0.5,1.8,0.7c0.6,0.3,1.2,0.6,1.7,0.8c0.6,0.3,1.1,0.7,1.7,1c0.5,0.4,1,0.8,1.6,1.2
			c0.5,0.4,1,0.9,1.4,1.3c0.4,0.5,0.9,1,1.3,1.4l1.2,1.6l1,1.7l0.8,1.8l0.1,0.1l0,0.1c1,3.6,2.1,7.3,3.2,10.9
			c1.1,3.6,2.3,7.2,3.4,10.8c2.3,7.2,4.7,14.4,7,21.6l7.3,21.5l7.3,21.5l-0.2-0.4c0.8,2,1.5,4,1.6,6.2c0.2,2.2,0,4.4-0.7,6.5
			c-0.6,2.1-1.6,4.1-2.9,5.9c-0.6,0.9-1.4,1.7-2.1,2.5c-0.8,0.7-1.6,1.5-2.5,2c-0.9,0.6-1.8,1.1-2.8,1.6c-0.5,0.3-1,0.4-1.5,0.6
			c-0.5,0.2-1,0.4-1.6,0.5c-0.6,0.2-1.1,0.3-1.7,0.4l-0.4,0.1l-0.3,0.1l-0.6,0.1l-0.6,0.1l-0.3,0l-0.1,0l0,0l-0.3,0l-0.2,0l-1.2,0.1
			l-9.9,1l-9.9,0.9l-4.9,0.5c-0.7,0.1-1.9,0.1-3,0.2c-1.1,0-2.2-0.1-3.3-0.2c-4.3-0.6-8.5-2.5-11.8-5.4c-3.4-2.9-5.9-7-6.9-11.5
			l-0.1-0.2l0-0.3c-0.4-3.4-0.8-6.9-1.2-10.3l-1.2-10.3c-0.8-6.9-1.6-13.8-2.3-20.7l-4.4-41.3l0.1,0.4l-0.3-1.6l-0.1-1.7
			c0-0.6,0-1.1,0-1.7l0.2-1.7c0.1-0.5,0.2-1.1,0.4-1.6c0.2-0.5,0.3-1.1,0.5-1.6c0.2-0.5,0.4-1,0.6-1.5c0.3-0.5,0.5-1,0.8-1.4
			c0.3-0.5,0.6-0.9,0.9-1.4c0.3-0.4,0.6-0.9,1-1.3c0.4-0.4,0.7-0.8,1.1-1.2c0.4-0.4,0.8-0.7,1.2-1.1c0.4-0.3,0.8-0.7,1.3-1
			c0.4-0.3,0.9-0.6,1.3-0.8c0.5-0.2,0.9-0.5,1.4-0.7l1.4-0.6l-0.5,0.2L71.3,509.6z"/>
	</g>
</g>
<g id="Layer_18">
</g>
</svg>
